# xmcd
#
# Track frame offsets:
#  150
#  17355
#  36997
#  50187
#  66310
#  87632
#  108429
#  125655
#  151635
#  170707
#  185392
#  201212
#
# Disc length: 2861 seconds
#
# Revision: 0
# Processed by: cddbd v1.5.1PL2 Copyright (c) Steve Scherf et al.
# Submitted via: Collectorz.com_Music_Collector 6.9
#
DISCID=a80b2b0c
DTITLE=Bluegrass Etc. - Home Is Where the Heart Is
DYEAR=1999
DGENRE=Bluegrass
TTITLE0=Sweet Georgia Brown
TTITLE1=Someplace Far Away
TTITLE2=Roanoke/Wheel Hoss Medley
TTITLE3=Northern Plains
TTITLE4=Amelia in Flight
TTITLE5=Evangelina
TTITLE6=Clinch Mountain Backstep
TTITLE7=Sarah Hogan
TTITLE8=Did You Ever Meet the Devil, Uncle Joe?
TTITLE9=Home Is Where the Heart Is
TTITLE10=Emerald Isle
TTITLE11=Houndogs Never Die
EXTD=
EXTT0=
EXTT1=
EXTT2=
EXTT3=
EXTT4=
EXTT5=
EXTT6=
EXTT7=
EXTT8=
EXTT9=
EXTT10=
EXTT11=
PLAYORDER=
